<svg xmlns="http://www.w3.org/2000/svg" viewBox="0 0 512 512" id="ai-based-fintech">
  <path fill="#918291" d="M160.5 331h-20a7.5 7.5 0 0 1 0-15h20a7.5 7.5 0 0 1 0 15zm0-45h-20a7.5 7.5 0 0 1 0-15h20a7.5 7.5 0 0 1 0 15zm0-45h-20a7.5 7.5 0 0 1 0-15h20a7.5 7.5 0 0 1 0 15zm0-45h-20a7.5 7.5 0 0 1 0-15h20a7.5 7.5 0 0 1 0 15zm211 135h-20a7.5 7.5 0 0 1 0-15h20a7.5 7.5 0 0 1 0 15zm0-45h-20a7.5 7.5 0 0 1 0-15h20a7.5 7.5 0 0 1 0 15zm0-45h-20a7.5 7.5 0 0 1 0-15h20a7.5 7.5 0 0 1 0 15zm0-45h-20a7.5 7.5 0 0 1 0-15h20a7.5 7.5 0 0 1 0 15zm68.71 67.5a7.5 7.5 0 0 1-7.5-7.5 176.88 176.88 0 0 0-118.5-166.9 7.5 7.5 0 1 1 4.93-14.16A191.86 191.86 0 0 1 447.71 256a7.5 7.5 0 0 1-7.5 7.5zM82.2 202.28a7.51 7.51 0 0 1-7.07-10A192 192 0 0 1 256 64.29a7.5 7.5 0 0 1 0 15 177 177 0 0 0-166.72 118 7.51 7.51 0 0 1-7.08 4.99zm113.12 235.2a7.27 7.27 0 0 1-2.46-.42A191.86 191.86 0 0 1 64.29 256a7.5 7.5 0 0 1 15 0 176.88 176.88 0 0 0 118.5 166.9 7.5 7.5 0 0 1-2.47 14.58zM256 447.71a7.5 7.5 0 0 1 0-15 176.82 176.82 0 0 0 167.09-119 7.5 7.5 0 1 1 14.18 4.9A191.81 191.81 0 0 1 256 447.71z"></path>
  <circle cx="256" cy="439.67" r="19.13" fill="#26a6fe"></circle>
  <circle cx="256" cy="72.33" r="19.13" fill="#26a6fe"></circle>
  <circle cx="439.67" cy="256" r="19.13" fill="#26a6fe"></circle>
  <circle cx="72.33" cy="256" r="19.13" fill="#26a6fe"></circle>
  <path fill="#918291" d="M188.5 168a7.5 7.5 0 0 1-7.5-7.5v-20a7.5 7.5 0 0 1 15 0v20a7.5 7.5 0 0 1-7.5 7.5zm45 0a7.5 7.5 0 0 1-7.5-7.5v-20a7.5 7.5 0 0 1 15 0v20a7.5 7.5 0 0 1-7.5 7.5zm45 0a7.5 7.5 0 0 1-7.5-7.5v-20a7.5 7.5 0 0 1 15 0v20a7.5 7.5 0 0 1-7.5 7.5zm45 0a7.5 7.5 0 0 1-7.5-7.5v-20a7.5 7.5 0 0 1 15 0v20a7.5 7.5 0 0 1-7.5 7.5zm-135 211a7.5 7.5 0 0 1-7.5-7.5v-20a7.5 7.5 0 0 1 15 0v20a7.5 7.5 0 0 1-7.5 7.5zm45 0a7.5 7.5 0 0 1-7.5-7.5v-20a7.5 7.5 0 0 1 15 0v20a7.5 7.5 0 0 1-7.5 7.5zm45 0a7.5 7.5 0 0 1-7.5-7.5v-20a7.5 7.5 0 0 1 15 0v20a7.5 7.5 0 0 1-7.5 7.5zm45 0a7.5 7.5 0 0 1-7.5-7.5v-20a7.5 7.5 0 0 1 15 0v20a7.5 7.5 0 0 1-7.5 7.5z"></path>
  <path fill="#fedf30" d="M87.89 389a7.5 7.5 0 0 0 0-15H7.5a7.5 7.5 0 0 0 0 15h28.86a23.46 23.46 0 0 1 22.18 15.92H7.5a7.5 7.5 0 0 0 0 15h51a23.45 23.45 0 0 1-22.18 15.93H7.5a7.5 7.5 0 0 0-5.36 12.74l59.78 61.15a7.5 7.5 0 0 0 10.72-10.48l-47.32-48.41h11A38.49 38.49 0 0 0 74 419.92h13.89a7.5 7.5 0 0 0 0-15H74A38.34 38.34 0 0 0 66.79 389zm0-374a7.5 7.5 0 0 0 0-15H7.5a7.5 7.5 0 0 0 0 15h28.86a23.46 23.46 0 0 1 22.18 15.92H7.5a7.5 7.5 0 0 0 0 15h51a23.44 23.44 0 0 1-22.14 15.92H7.5a7.5 7.5 0 0 0-5.36 12.74l59.78 61.16a7.5 7.5 0 1 0 10.72-10.49L25.32 76.84h11A38.48 38.48 0 0 0 74 45.92h13.89a7.5 7.5 0 0 0 0-15H74A38.34 38.34 0 0 0 66.79 15zM504.5 389a7.5 7.5 0 0 0 0-15h-80.39a7.5 7.5 0 0 0 0 15H453a23.47 23.47 0 0 1 22.19 15.92h-51a7.5 7.5 0 0 0 0 15h51A23.47 23.47 0 0 1 453 435.85h-28.89a7.5 7.5 0 0 0-5.37 12.74l59.78 61.15a7.5 7.5 0 0 0 10.73-10.48l-47.33-48.41h11a38.5 38.5 0 0 0 37.69-30.93h13.89a7.5 7.5 0 0 0 0-15h-13.85a38.36 38.36 0 0 0-7.26-15.92zm0-358.08h-13.85A38.36 38.36 0 0 0 483.39 15h21.11a7.5 7.5 0 0 0 0-15h-80.39a7.5 7.5 0 0 0 0 15H453a23.47 23.47 0 0 1 22.19 15.92h-51a7.5 7.5 0 0 0 0 15h51A23.46 23.46 0 0 1 453 61.84h-28.89a7.5 7.5 0 0 0-5.37 12.74l59.78 61.16a7.5 7.5 0 0 0 10.73-10.49l-47.33-48.41h11a38.49 38.49 0 0 0 37.69-30.92h13.89a7.5 7.5 0 0 0 0-15z"></path>
  <rect width="191" height="191" x="160.5" y="160.5" fill="#26a6fe" rx="30"></rect>
  <path fill="#fedf30" d="M252 207.5h-37a17.52 17.52 0 0 0-17.5 17.5v72a7.5 7.5 0 0 0 15 0v-29.5h42V297a7.5 7.5 0 0 0 15 0v-72a17.52 17.52 0 0 0-17.5-17.5zm-39.5 45V225a2.5 2.5 0 0 1 2.5-2.5h37a2.5 2.5 0 0 1 2.5 2.5v27.5zm94.5-45a7.5 7.5 0 0 0-7.5 7.5v82a7.5 7.5 0 0 0 15 0v-82a7.5 7.5 0 0 0-7.5-7.5z"></path>
  <path fill="#918291" d="M494.75 332.6a7.69 7.69 0 0 1-2.05-.29 7.48 7.48 0 0 1-5.17-9.2l.06-.2a7.5 7.5 0 1 1 14.41 4.25l-7.22-2.16 7.19 2.15a7.55 7.55 0 0 1-7.22 5.45zm6.25-27.28a7.48 7.48 0 0 1-7.4-8.67v-.19a7.5 7.5 0 1 1 14.79 2.54l-7.39-1.25 7.38 1.31a7.53 7.53 0 0 1-7.38 6.26zm3.13-27.82h-.41a7.47 7.47 0 0 1-7.09-7.82s0-.16 0-.2a7.5 7.5 0 0 1 15 .93l-7.48-.46 7.48.48a7.52 7.52 0 0 1-7.51 7.07zm0-28a7.55 7.55 0 1 1 7.48-8.07s0 .18 0 .22a7.5 7.5 0 0 1-7.14 7.84zM501 221.73a7.52 7.52 0 1 1 7.39-8.88v.19a7.5 7.5 0 0 1-6.21 8.6 8.31 8.31 0 0 1-1.18.09zm-6.22-27.28a7.54 7.54 0 1 1 7.17-9.71l.06.2a7.51 7.51 0 0 1-5.21 9.24 7.79 7.79 0 0 1-2.03.27zM485.48 359a7.53 7.53 0 1 1 7-4.84 2.6 2.6 0 0 1-.1.25 7.51 7.51 0 0 1-6.9 4.59zM17.25 332.65a7.5 7.5 0 0 1-7.19-5.39l-.06-.2a7.49 7.49 0 1 1 7.25 5.59zM11 305.32a7.46 7.46 0 0 1-7.36-6.17v-.19a7.5 7.5 0 1 1 8.66 6.25 7.88 7.88 0 0 1-1.3.11zm-3.11-27.75a7.51 7.51 0 0 1-7.48-7s0-.18 0-.22a7.5 7.5 0 1 1 8 7.24zm0-28h-.47a7.5 7.5 0 0 1-7-8l7.48.46-7.5-.45a7.5 7.5 0 0 1 15 .75s0 .16 0 .2a7.5 7.5 0 0 1-7.51 7.03zM11 221.75a8.35 8.35 0 0 1-1.3-.11A7.49 7.49 0 0 1 3.61 213l7.39 1.25-7.38-1.31a7.5 7.5 0 0 1 14.8 2.41v.19a7.5 7.5 0 0 1-7.42 6.21zm6.22-27.28a7.51 7.51 0 0 1-7.22-9.63l7.22 2.16-7.22-2.18a7.5 7.5 0 0 1 14.44 4.07l-.06.2a7.51 7.51 0 0 1-7.16 5.38zm9.28-26.42a7.61 7.61 0 0 1-2.71-.51 7.5 7.5 0 0 1-4.28-9.7 2.6 2.6 0 0 1 .1-.25 7.5 7.5 0 1 1 6.89 10.46zM186.84 24.76a7.5 7.5 0 0 1-2.1-14.7l.2-.06a7.5 7.5 0 1 1 4 14.45 7.4 7.4 0 0 1-2.1.31zm138.28 0a7.38 7.38 0 0 1-2-.28l-.2-.06A7.5 7.5 0 1 1 327.16 10L325 17.22l2.18-7.22a7.51 7.51 0 0 1-2.06 14.72zm-27.27-6.24a6.94 6.94 0 0 1-1.2-.1h-.19A7.5 7.5 0 1 1 299 3.61L297.75 11l1.31-7.38a7.5 7.5 0 0 1-1.21 14.9zm-83.63 0a7.5 7.5 0 0 1-1.37-14.88h.19a7.5 7.5 0 0 1 2.39 14.81 7.14 7.14 0 0 1-1.21.05zm27.69-3.11a7.5 7.5 0 0 1-.44-15h.22a7.5 7.5 0 0 1 .7 15zm28.13 0h-.57a7.5 7.5 0 1 1 .93-15l-.46 7.48.48-7.49a7.5 7.5 0 0 1-.38 15zM351.49 34a7.29 7.29 0 0 1-2.87-.58 7.5 7.5 0 0 1 5.54-13.93l.25.1A7.5 7.5 0 0 1 351.49 34zM242.07 511.62h-.47l.46-7.48-.48 7.48a7.5 7.5 0 0 1 .75-15h.2a7.5 7.5 0 0 1-.46 15zm27.88 0a7.58 7.58 0 1 1 .58 0h-.22zm-55.69-3.1a7.23 7.23 0 0 1-1.3-.12l1.29-7.38-1.31 7.38a7.5 7.5 0 0 1 2.41-14.8h.19a7.5 7.5 0 0 1-1.28 14.89zm83.5 0a7.5 7.5 0 1 1 1.39-.12h-.19a8.08 8.08 0 0 1-1.2.1zM187 502.28a7.52 7.52 0 0 1-2.13-.31 7.5 7.5 0 0 1 4.07-14.44l.2.06a7.5 7.5 0 0 1-2.14 14.69zm138.08 0a7.61 7.61 0 1 1 2.21-.34l-.2.06a7.38 7.38 0 0 1-2.04.28zM160.57 493a7.52 7.52 0 0 1-2.13-.31 7.5 7.5 0 0 1 4.06-14.44l.2.06a7.5 7.5 0 0 1-2.12 14.7zm190.76-.06a7.58 7.58 0 1 1 2.21-.33l-.2.05a7.38 7.38 0 0 1-2.01.28z"></path>
  <path fill="#918291" d="M160.54 493a7.34 7.34 0 0 1-2.7-.51l-.25-.1a7.49 7.49 0 1 1 2.95.61zm-.01-459a7.45 7.45 0 0 1-2.12-.31 7.5 7.5 0 0 1 4.06-14.44l.2.05a7.5 7.5 0 0 1-2.14 14.7z"></path>
  <path fill="#918291" d="M160.51 34a7.39 7.39 0 0 1-2.71-.51l-.24-.09a7.51 7.51 0 1 1 2.95.6zm325 134a7.45 7.45 0 0 1-2.12-.31 7.5 7.5 0 0 1 4.06-14.44h.2a7.5 7.5 0 0 1-2.12 14.7z"></path>
  <path fill="#918291" d="M485.49 168a7.39 7.39 0 0 1-2.71-.51l-.24-.09a7.51 7.51 0 1 1 2.95.6zM26.55 359a7.45 7.45 0 0 1-2.12-.31 7.5 7.5 0 0 1 4.06-14.44l.2.05a7.5 7.5 0 0 1-2.14 14.7z"></path>
  <path fill="#918291" d="M26.53 359a7.39 7.39 0 0 1-2.71-.51l-.24-.09a7.51 7.51 0 1 1 3 .6Z"></path>
</svg>
